<svg xmlns="http://www.w3.org/2000/svg" viewBox="0 0 1152 1245"><path d="M1080.25 1100.3H942.57v-72.6h65.08V164.4h-860.8v863.3h60.08v72.6H71.75V91.8h1008.5z" fill="#3378b3"/><path d="M444.75 516.48s-150.2 81.9-150.2 245.87c0 139.3 98.35 213.14 98.35 213.14h30.04s-54.72-79.21-54.72-204.92c.18-142.15 76.53-254.09 76.53-254.09" fill="#3378b3"/><path d="M472.11 975.5s-60.08-81.9-60.08-213.15c0-161.29 92.98-245.87 92.98-245.87h13.6s-27.37 98.35-27.37 245.87 19.14 213.14 19.14 213.14zM589.59 516.48h-27.18s-27.36 112.12-27.36 245.87c0 76.53 19.13 213.14 19.13 213.14h43.63s19.14-136.6 19.14-213.14c0-133.93-27.36-245.87-27.36-245.87M707.25 516.48s150.2 81.9 150.2 245.87c0 139.3-98.35 213.14-98.35 213.14h-30.04s54.72-79.21 54.72-204.92c-.18-142.15-76.53-254.09-76.53-254.09" fill="#3378b3"/><path d="M679.89 975.5s60.08-81.9 60.08-213.15c0-161.29-92.98-245.87-92.98-245.87h-13.6s27.37 98.35 27.37 245.87-19.14 213.14-19.14 213.14zM576 469.99h-5.36c-44.7.71-71 19.13-71 19.13h147.53c-.18 0-26.47-18.42-71.17-19.13M731.75 1005.54H423.1s45.6 33.97 124.28 41.3v54.36h60.08v-54.36c78.68-7.33 124.28-41.3 124.28-41.3" fill="#3378b3"/></svg>